<?xml version="1.0" encoding="UTF-8"?>
<svg fill="none" viewBox="0 0 328 404" xmlns="http://www.w3.org/2000/svg">
<path d="m145.66 310.27 131.91-66.06m-131.91 66.06 97.297 18.299 34.614-84.359m-131.91 66.06 41.032 81.935 2.16 4.312 131.91-66.06-43.192-86.247" stroke="#440D3D" stroke-width="10"/>
<path d="m190.19 396.29 22.892-70.823" stroke="#440D3D" stroke-width="10"/>
<path d="m249.02 307.47 71.209 21.819" stroke="#440D3D" stroke-width="10"/>
<path d="m109.5 182.5-22.5-32-4.6071-6.047c-2.2552-2.96-4.1796-6.158-5.7389-9.536l-3.654-7.917-5.3504-16.874c-0.7652-2.414-1.3383-4.884-1.7138-7.388l-0.7026-4.6835c-1.1519-7.6788-1.4401-15.462-0.8594-23.206l0.2179-2.9048c0.2712-3.6155 0.9882-7.1837 2.1347-10.623l12.568-37.704c0.7998-2.3992 1.9326-4.6742 3.3654-6.7582l8.1644-11.876c0.6981-1.0153 2.1585-1.119 2.993-0.21243 15.607 16.956 27.397 37.061 34.574 58.96l8.609 26.269m-13 119 7.688-33.5 5.312-31 3.52-19.497c1.976-10.944 5.529-21.544 10.548-31.468l14.432-28.535 21.5-30 23.873-25.251c0.998-1.055 2.752-0.72911 3.304 0.61384l9.673 23.539c2.754 6.7013 4.592 13.743 5.464 20.936 1.768 14.589 0.246 29.389-4.456 43.313l-5.858 17.349-53.5 101.5" stroke="#440D3D" stroke-width="8"/>
<path d="m174 202 49.306 9.131c3.123 0.578 6.292 0.869 9.468 0.869h25.226l-30.331 17.004c-1.772 0.993-3.663 1.758-5.628 2.275l-11.609 3.055c-2.951 0.776-5.84 1.769-8.644 2.971l-16.788 7.195m-12.5 4.286-9.353 1.069c-3.756 0.429-7.544 0.496-11.313 0.201l-19.834-1.556-23.224-3.318c-3.171-0.453-6.269-1.315-9.2175-2.566l-5.9385-2.52c-4.0657-1.724-7.9131-3.924-11.462-6.553l-8.158-6.043-5.7602-4.224c-6.0031-4.402-13.254-6.776-20.698-6.776h-2.542l-32 7 22.5-23-0.8628-3.02c-1.3746-4.811-0.8958-9.963 1.342-14.438l0.2454-0.491c3.0284-6.057 8.5719-10.471 15.153-12.067l4.0323-0.977c1.3885-0.337 2.8121-0.507 4.2408-0.507h7.1332c6.6977 0 13.283 1.725 19.12 5.009l3.8396 2.159c2.1585 1.214 4.4879 2.096 6.9095 2.615 6.8818 1.474 13.604 3.613 20.073 6.385l4.274 1.832 6 2.5m45.5 59.286 33.5 29.214m-33.5-29.214 12.5-4.286 36.5 29.5" stroke="#440D3D" stroke-width="8"/>
<path d="m52.5 183c-2.7614 0-5 2.239-5 5s2.2386 5 5 5 5-2.239 5-5-2.2386-5-5-5z" stroke="#440D3D" stroke-width="5"/>
</svg>
